<svg width="35" height="35" viewBox="0 0 35 35" fill="none" xmlns="http://www.w3.org/2000/svg">
<path d="M18.9993 3.41675C20.6398 3.42112 21.4725 3.42987 22.1914 3.45029L22.4743 3.4605C22.801 3.47216 23.1232 3.48675 23.5126 3.50425C25.0642 3.57716 26.1229 3.82216 27.0518 4.18235C28.0142 4.55276 28.825 5.05442 29.6358 5.86377C30.3776 6.59253 30.9514 7.47442 31.3172 8.44788C31.6774 9.37681 31.9224 10.4355 31.9953 11.9886C32.0128 12.3765 32.0274 12.6988 32.039 13.0269L32.0478 13.3098C32.0697 14.0273 32.0784 14.86 32.0813 16.5006L32.0828 17.5885V19.4989C32.0863 20.5625 32.0751 21.6262 32.0492 22.6896L32.0405 22.9725C32.0288 23.3006 32.0142 23.6229 31.9967 24.0108C31.9238 25.5639 31.6759 26.6212 31.3172 27.5516C30.9514 28.525 30.3776 29.4069 29.6358 30.1357C28.9071 30.8775 28.0252 31.4513 27.0518 31.8171C26.1229 32.1773 25.0642 32.4223 23.5126 32.4952L22.4743 32.539L22.1914 32.5477C21.4725 32.5681 20.6398 32.5783 18.9993 32.5813L17.9114 32.5827H16.0025C14.9384 32.5865 13.8742 32.5753 12.8104 32.5492L12.5275 32.5404C12.1813 32.5273 11.8352 32.5122 11.4892 32.4952C9.93764 32.4223 8.87894 32.1773 7.94857 31.8171C6.97567 31.4512 6.09431 30.8773 5.366 30.1357C4.62366 29.4071 4.04935 28.5252 3.68316 27.5516C3.32297 26.6226 3.07799 25.5639 3.00507 24.0108L2.96133 22.9725L2.95403 22.6896C2.92715 21.6263 2.915 20.5626 2.91758 19.4989V16.5006C2.91354 15.4369 2.92424 14.3732 2.94966 13.3098L2.95987 13.0269C2.97153 12.6988 2.98612 12.3765 3.00361 11.9886C3.07653 10.4355 3.32152 9.37827 3.68171 8.44788C4.04874 7.47402 4.62407 6.5921 5.36745 5.86377C6.09535 5.1223 6.97619 4.54849 7.94857 4.18235C8.87894 3.82216 9.93618 3.57716 11.4892 3.50425C11.8771 3.48675 12.2009 3.47216 12.5275 3.4605L12.8104 3.45175C13.8738 3.42584 14.9374 3.41466 16.0011 3.41821L18.9993 3.41675ZM17.5002 10.7082C15.5664 10.7082 13.7118 11.4764 12.3444 12.8439C10.9771 14.2113 10.2089 16.0659 10.2089 17.9997C10.2089 19.9336 10.9771 21.7882 12.3444 23.1556C13.7118 24.523 15.5664 25.2912 17.5002 25.2912C19.434 25.2912 21.2885 24.523 22.6559 23.1556C24.0233 21.7882 24.7915 19.9336 24.7915 17.9997C24.7915 16.0659 24.0233 14.2113 22.6559 12.8439C21.2885 11.4764 19.434 10.7082 17.5002 10.7082ZM17.5002 13.6248C18.0747 13.6247 18.6436 13.7378 19.1744 13.9576C19.7052 14.1773 20.1875 14.4995 20.5938 14.9057C21.0001 15.3119 21.3225 15.7941 21.5424 16.3249C21.7623 16.8556 21.8756 17.4245 21.8757 17.999C21.8758 18.5735 21.7627 19.1424 21.543 19.6733C21.3232 20.2041 21.001 20.6864 20.5949 21.0927C20.1887 21.499 19.7065 21.8214 19.1757 22.0413C18.645 22.2613 18.0761 22.3745 17.5016 22.3746C16.3414 22.3746 15.2286 21.9137 14.4082 21.0932C13.5878 20.2728 13.1269 19.16 13.1269 17.9997C13.1269 16.8394 13.5878 15.7267 14.4082 14.9062C15.2286 14.0858 16.3414 13.6248 17.5016 13.6248M25.1575 8.52079C24.6741 8.52079 24.2104 8.71284 23.8686 9.0547C23.5267 9.39655 23.3347 9.86021 23.3347 10.3437C23.3347 10.8271 23.5267 11.2908 23.8686 11.6326C24.2104 11.9745 24.6741 12.1665 25.1575 12.1665C25.6409 12.1665 26.1046 11.9745 26.4464 11.6326C26.7883 11.2908 26.9803 10.8271 26.9803 10.3437C26.9803 9.86021 26.7883 9.39655 26.4464 9.0547C26.1046 8.71284 25.6409 8.52079 25.1575 8.52079Z" fill="white"/>
</svg>
