<svg width="37" height="37" viewBox="0 0 37 37" fill="none" xmlns="http://www.w3.org/2000/svg">
<g clip-path="url(#clip0_102_337)">
<path d="M3.7002 8.74545C3.7002 8.38861 3.79765 8.04639 3.97112 7.79407C4.14459 7.54175 4.37987 7.39999 4.6252 7.39999H18.5002H32.3752C32.6205 7.39999 32.8558 7.54175 33.0293 7.79407C33.2027 8.04639 33.3002 8.38861 33.3002 8.74545C33.3002 9.10229 33.2027 9.44451 33.0293 9.69683C32.8558 9.94915 32.6205 10.0909 32.3752 10.0909H4.6252C4.37987 10.0909 4.14459 9.94915 3.97112 9.69683C3.79765 9.44451 3.7002 9.10229 3.7002 8.74545ZM3.7002 22.2C3.7002 21.8432 3.79765 21.5009 3.97112 21.2486C4.14459 20.9963 4.37987 20.8545 4.6252 20.8545H32.3752C32.6205 20.8545 32.8558 20.9963 33.0293 21.2486C33.2027 21.5009 33.3002 21.8432 33.3002 22.2C33.3002 22.5568 33.2027 22.8991 33.0293 23.1514C32.8558 23.4037 32.6205 23.5454 32.3752 23.5454H4.6252C4.37987 23.5454 4.14459 23.4037 3.97112 23.1514C3.79765 22.8991 3.7002 22.5568 3.7002 22.2ZM4.6252 34.3091C4.37987 34.3091 4.14459 34.4508 3.97112 34.7032C3.79765 34.9555 3.7002 35.2977 3.7002 35.6545C3.7002 36.0114 3.79765 36.3536 3.97112 36.6059C4.14459 36.8582 4.37987 37 4.6252 37H32.3752C32.6205 37 32.8558 36.8582 33.0293 36.6059C33.2027 36.3536 33.3002 36.0114 33.3002 35.6545C33.3002 35.2977 33.2027 34.9555 33.0293 34.7032C32.8558 34.4508 32.6205 34.3091 32.3752 34.3091H4.6252Z" fill="black"/>
</g>
<defs>
<clipPath id="clip0_102_337">
<rect width="37" height="37" fill="white"/>
</clipPath>
</defs>
</svg>
